<?xml version="1.0" encoding="UTF-8" standalone="no"?>
<!-- Created with Inkscape (http://www.inkscape.org/) -->

<svg
   width="100mm"
   height="100mm"
   viewBox="0 0 100 100"
   version="1.1"
   id="svg5"
   sodipodi:docname="cohiva_logo_mockup.svg"
   inkscape:version="1.2.2 (b0a8486541, 2022-12-01)"
   xmlns:inkscape="http://www.inkscape.org/namespaces/inkscape"
   xmlns:sodipodi="http://sodipodi.sourceforge.net/DTD/sodipodi-0.dtd"
   xmlns="http://www.w3.org/2000/svg"
   xmlns:svg="http://www.w3.org/2000/svg">
  <sodipodi:namedview
     id="namedview7"
     pagecolor="#ffffff"
     bordercolor="#000000"
     borderopacity="0.25"
     inkscape:showpageshadow="2"
     inkscape:pageopacity="0.0"
     inkscape:pagecheckerboard="0"
     inkscape:deskcolor="#d1d1d1"
     inkscape:document-units="mm"
     showgrid="false"
     showguides="false"
     inkscape:zoom="0.914906"
     inkscape:cx="936.16174"
     inkscape:cy="544.31821"
     inkscape:window-width="3840"
     inkscape:window-height="2136"
     inkscape:window-x="3840"
     inkscape:window-y="0"
     inkscape:window-maximized="1"
     inkscape:current-layer="layer1">
    <sodipodi:guide
       position="42.482109,66.688271"
       orientation="0,-1"
       id="guide9"
       inkscape:locked="false" />
    <sodipodi:guide
       position="39.113194,33.341285"
       orientation="0,-1"
       id="guide61"
       inkscape:locked="false" />
    <sodipodi:guide
       position="50.030185,79.250486"
       orientation="1,0"
       id="guide63"
       inkscape:locked="false" />
    <sodipodi:guide
       position="23.858325,69.634858"
       orientation="0,-1"
       id="guide65"
       inkscape:locked="false" />
    <sodipodi:guide
       position="46.993671,73.611246"
       orientation="1,0"
       id="guide67"
       inkscape:locked="false" />
    <sodipodi:guide
       position="52.994401,71.442307"
       orientation="1,0"
       id="guide69"
       inkscape:locked="false" />
    <sodipodi:guide
       position="20.821811,63.778724"
       orientation="0,-1"
       id="guide71"
       inkscape:locked="false" />
    <sodipodi:guide
       position="16.411636,36.377799"
       orientation="0,-1"
       id="guide73"
       inkscape:locked="false" />
    <sodipodi:guide
       position="22.050876,30.377069"
       orientation="0,-1"
       id="guide75"
       inkscape:locked="false" />
    <sodipodi:guide
       position="3.0365141,82.431596"
       orientation="1,0"
       id="guide77"
       inkscape:locked="false" />
    <sodipodi:guide
       position="15.54406,96.963485"
       orientation="0,-1"
       id="guide79"
       inkscape:locked="false" />
    <sodipodi:guide
       position="97.023855,83.516066"
       orientation="1,0"
       id="guide81"
       inkscape:locked="false" />
    <sodipodi:guide
       position="66.191143,2.9868669"
       orientation="0,-1"
       id="guide83"
       inkscape:locked="false" />
    <sodipodi:guide
       position="25.375943,90.002848"
       orientation="0,-1"
       id="guide148"
       inkscape:locked="false" />
    <sodipodi:guide
       position="10.019985,84.049819"
       orientation="1,0"
       id="guide152"
       inkscape:locked="false" />
    <sodipodi:guide
       position="40.028819,80.369008"
       orientation="1,0"
       id="guide154"
       inkscape:locked="false" />
    <sodipodi:guide
       position="22.698334,76.637074"
       orientation="0,-1"
       id="guide156"
       inkscape:locked="false" />
    <inkscape:grid
       type="xygrid"
       id="grid158" />
    <sodipodi:guide
       position="90.026501,86.605937"
       orientation="1,0"
       id="guide340"
       inkscape:locked="false" />
    <sodipodi:guide
       position="60.017667,76.637074"
       orientation="1,0"
       id="guide342"
       inkscape:locked="false" />
    <sodipodi:guide
       position="23.786027,56.621226"
       orientation="0,-1"
       id="guide352"
       inkscape:locked="false" />
    <sodipodi:guide
       position="20.604917,43.318403"
       orientation="0,-1"
       id="guide354"
       inkscape:locked="false" />
    <sodipodi:guide
       position="19.954236,23.364167"
       orientation="0,-1"
       id="guide356"
       inkscape:locked="false" />
    <sodipodi:guide
       position="27.184031,9.9167476"
       orientation="0,-1"
       id="guide358"
       inkscape:locked="false" />
    <sodipodi:guide
       position="25.015092,41.29406"
       orientation="1,0"
       id="guide360"
       inkscape:locked="false" />
    <sodipodi:guide
       position="75.045277,37.823758"
       orientation="1,0"
       id="guide362"
       inkscape:locked="false" />
    <sodipodi:guide
       position="34.269231,49.897517"
       orientation="0,-1"
       id="guide368"
       inkscape:locked="false" />
  </sodipodi:namedview>
  <defs
     id="defs2" />
  <g
     inkscape:label="Ebene 1"
     inkscape:groupmode="layer"
     id="layer1">
    <path
       id="path162"
       style="fill:#000000;stroke-width:0.264583"
       d="m 2.5078125,3.0371094 c 0,9.2858076 0,18.5716146 0,27.8574216 15.0052085,0 30.0104165,0 45.0156255,0 0,-3.764323 -10e-7,-7.528646 0,-11.292969 -2.67448,10e-7 -5.348959,0 -8.023438,0 0,1.077474 0,2.154948 0,3.232422 -9.650391,0 -19.300781,0 -28.951172,0 0,-4.102213 0,-8.204427 0,-12.30664 9.650391,0 19.300781,0 28.951172,0 0,1.076823 0,2.153646 0,3.230468 2.674479,0 5.348958,1e-6 8.023438,0 0,-3.75 0,-7.4999995 0,-11.2499995 -15.005209,0 -30.010417,0 -45.0156255,0 0,0.1764323 0,0.3528646 0,0.5292969 z" />
    <path
       id="rect344"
       style="stroke-width:0.264583"
       d="m 52.464844,3.0371094 c 0,9.2858076 0,18.5716146 0,27.8574216 15.029297,0 30.058593,0 45.08789,0 0,-9.462239 0,-18.924479 0,-28.3867185 -15.029296,0 -30.058593,0 -45.08789,0 0,0.1764323 0,0.3528646 0,0.5292969 z m 37.09375,7.4902346 c 0,4.102213 0,8.204427 0,12.30664 -9.670573,0 -19.341146,0 -29.011719,0 0,-4.102213 0,-8.204427 0,-12.30664 9.670573,0 19.341146,0 29.011719,0 z" />
    <path
       id="rect364"
       style="stroke-width:0.264583"
       d="m 2.5078125,36.220703 c 0,9.309896 0,18.619792 0,27.929688 2.6803385,0 5.3606771,0 8.0410155,0 0,-3.402344 0,-6.804688 0,-10.207032 9.650391,0 19.300781,0 28.951172,0 0,3.402344 0,6.804688 0,10.207032 2.674479,0 5.348958,0 8.023438,0 0,-9.486328 0,-18.972657 0,-28.458985 -2.67448,0 -5.348959,0 -8.023438,0 0,3.402995 0,6.80599 0,10.208985 -9.650391,0 -19.300781,0 -28.951172,0 0,-3.402995 0,-6.80599 0,-10.208985 -2.6803384,0 -5.360677,0 -8.0410155,0 0,0.176433 0,0.352865 0,0.529297 z" />
    <path
       id="rect419"
       style="stroke-width:0.264583"
       d="m 52.464844,36.220703 c 0,2.5625 0,5.125 0,7.6875 6.097005,0 12.19401,0 18.291015,0 0,4.08138 0,8.162761 0,12.244141 -6.097005,0 -12.19401,0 -18.291015,0 0,2.666015 0,5.332031 0,7.998047 15.029297,0 30.058594,0 45.08789,0 0,-2.666016 0,-5.332032 0,-7.998047 -6.257812,0 -12.515625,0 -18.773437,0 0,-4.08138 0,-8.162761 0,-12.244141 6.257812,0 12.515625,0 18.773437,0 0,-2.738932 0,-5.477864 0,-8.216797 -15.029297,0 -30.058593,0 -45.08789,0 0,0.176433 0,0.352865 0,0.529297 z" />
    <path
       id="path556"
       style="fill:#000000;stroke:#000000;stroke-width:0.264583"
       d="m 2.5078125,69.623047 c 0,2.405599 0,4.811198 0,7.216797 6.2539853,6.908653 12.5097805,13.815683 18.7656255,20.722656 2.477864,0 4.955729,0 7.433593,0 6.272552,-6.906522 12.544038,-13.814014 18.816407,-20.720703 -10e-7,-2.582682 0,-5.165365 0,-7.748047 -2.67448,0 -5.348959,0 -8.023438,0 0,2.448568 0,4.897135 0,7.345703 -3.75651,4.350261 -7.513021,8.700521 -11.269531,13.050781 -2.160157,0 -4.320313,0 -6.480469,0 -3.733724,-4.349609 -7.467448,-8.699218 -11.201172,-13.048828 0,-2.449218 0,-4.898437 0,-7.347656 -2.6803384,0 -5.360677,0 -8.0410155,0 0,0.176432 0,0.352865 0,0.529297 z" />
    <path
       id="path558"
       style="fill:#000000;stroke:#000000;stroke-width:0.264583"
       d="m 71.242188,69.267578 c -6.202895,6.849818 -12.407634,13.697972 -18.609376,20.548828 0,2.582032 10e-7,5.164063 0,7.746094 2.68099,0 5.36198,0 8.042969,0 0,-2.216797 0,-4.433594 0,-6.650391 9.64974,0 19.299479,0 28.949219,0 0,2.216797 0,4.433594 0,6.650391 2.67513,0 5.35026,0 8.025391,0 0,-2.582682 0,-5.165365 0,-7.748047 C 91.378022,82.907764 85.106536,76.000272 78.833984,69.09375 c -2.477864,0 -4.955729,0 -7.433593,0 -0.05273,0.05794 -0.105469,0.115885 -0.158203,0.173828 z m 7.115234,7.896484 c 1.641927,1.902344 3.283854,3.804688 4.925781,5.707032 -5.434245,0 -10.868489,0 -16.302734,0 1.632161,-1.902344 3.264323,-3.804688 4.896484,-5.707032 2.160156,0 4.320313,10e-7 6.480469,0 z" />
  </g>
</svg>
