<svg xmlns="http://www.w3.org/2000/svg" id="svg5" width="100mm" height="100mm" viewBox="0 0 100 100"><g id="layer1"><path id="path162" d="M2.508 3.037v27.858h45.015V19.602H39.5v3.232H10.549V10.527H39.5v3.23h8.023V2.508H2.508z" style="fill:#000;stroke-width:.264583"/><path id="rect344" d="M52.465 3.037v27.858h45.088V2.508H52.465zm37.094 7.49v12.307H60.547V10.527z" style="stroke-width:.264583"/><path id="rect364" d="M2.508 36.22v27.93h8.04V53.943H39.5V64.15h8.023V35.691H39.5v10.21H10.549V35.69H2.508z" style="stroke-width:.264583"/><path id="rect419" d="M52.465 36.22v7.688h18.29v12.244h-18.29v7.998h45.088v-7.998H78.779V43.908h18.774v-8.217H52.465z" style="stroke-width:.264583"/><path id="path556" d="M2.508 69.623v7.217q9.382 10.363 18.765 20.722h7.434l18.816-20.72v-7.748H39.5v7.345L28.23 89.49h-6.48L10.549 76.441v-7.347H2.508z" style="fill:#000;stroke:#000;stroke-width:.264583"/><path id="path558" d="m71.242 69.268-18.61 20.548v7.746h8.044v-6.65h28.949v6.65h8.025v-7.748l-18.816-20.72H71.4zm7.115 7.896 4.926 5.707H66.98l4.897-5.707z" style="fill:#000;stroke:#000;stroke-width:.264583"/></g></svg>