<?xml version="1.0" encoding="UTF-8" standalone="no"?>
<!-- Dark mode version of Cohiva icon -->
<svg
   width="100mm"
   height="100mm"
   viewBox="0 0 100 100"
   version="1.1"
   id="svg5"
   xmlns="http://www.w3.org/2000/svg"
   xmlns:svg="http://www.w3.org/2000/svg">
  <defs
     id="defs2" />
  <g
     id="layer1">
    <path
       id="path162"
       style="fill:#ffffff;stroke-width:0.264583"
       d="m 2.5078125,3.0371094 c 0,9.2858076 0,18.5716146 0,27.8574216 15.0052085,0 30.0104165,0 45.0156255,0 0,-3.764323 -10e-7,-7.528646 0,-11.292969 -2.67448,10e-7 -5.348959,0 -8.023438,0 0,1.077474 0,2.154948 0,3.232422 -9.650391,0 -19.300781,0 -28.951172,0 0,-4.102213 0,-8.204427 0,-12.30664 9.650391,0 19.300781,0 28.951172,0 0,1.076823 0,2.153646 0,3.230468 2.674479,0 5.348958,1e-6 8.023438,0 0,-3.75 0,-7.4999995 0,-11.2499995 -15.005209,0 -30.010417,0 -45.0156255,0 0,0.1764323 0,0.3528646 0,0.5292969 z" />
    <path
       id="rect344"
       style="fill:#ffffff;stroke-width:0.264583"
       d="m 52.464844,3.0371094 c 0,9.2858076 0,18.5716146 0,27.8574216 15.029297,0 30.058593,0 45.08789,0 0,-9.462239 0,-18.924479 0,-28.3867185 -15.029296,0 -30.058593,0 -45.08789,0 0,0.1764323 0,0.3528646 0,0.5292969 z m 37.09375,7.4902346 c 0,4.102213 0,8.204427 0,12.30664 -9.670573,0 -19.341146,0 -29.011719,0 0,-4.102213 0,-8.204427 0,-12.30664 9.670573,0 19.341146,0 29.011719,0 z" />
    <path
       id="rect364"
       style="fill:#ffffff;stroke-width:0.264583"
       d="m 2.5078125,36.220703 c 0,9.309896 0,18.619792 0,27.929688 2.6803385,0 5.3606771,0 8.0410155,0 0,-3.402344 0,-6.804688 0,-10.207032 9.650391,0 19.300781,0 28.951172,0 0,3.402344 0,6.804688 0,10.207032 2.674479,0 5.348958,0 8.023438,0 0,-9.486328 0,-18.972657 0,-28.458985 -2.67448,0 -5.348959,0 -8.023438,0 0,3.402995 0,6.80599 0,10.208985 -9.650391,0 -19.300781,0 -28.951172,0 0,-3.402995 0,-6.80599 0,-10.208985 -2.6803384,0 -5.360677,0 -8.0410155,0 0,0.176433 0,0.352865 0,0.529297 z" />
    <path
       id="rect419"
       style="fill:#ffffff;stroke-width:0.264583"
       d="m 52.464844,36.220703 c 0,2.5625 0,5.125 0,7.6875 6.097005,0 12.19401,0 18.291015,0 0,4.08138 0,8.162761 0,12.244141 -6.097005,0 -12.19401,0 -18.291015,0 0,2.666015 0,5.332031 0,7.998047 15.029297,0 30.058594,0 45.08789,0 0,-2.666016 0,-5.332032 0,-7.998047 -6.257812,0 -12.515625,0 -18.773437,0 0,-4.08138 0,-8.162761 0,-12.244141 6.257812,0 12.515625,0 18.773437,0 0,-2.738932 0,-5.477864 0,-8.216797 -15.029297,0 -30.058593,0 -45.08789,0 0,0.176433 0,0.352865 0,0.529297 z" />
    <path
       id="path556"
       style="fill:#ffffff;stroke:#ffffff;stroke-width:0.264583"
       d="m 2.5078125,69.623047 c 0,2.405599 0,4.811198 0,7.216797 6.2539853,6.908653 12.5097805,13.815683 18.7656255,20.722656 2.477864,0 4.955729,0 7.433593,0 6.272552,-6.906522 12.544038,-13.814014 18.816407,-20.720703 -10e-7,-2.582682 0,-5.165365 0,-7.748047 -2.67448,0 -5.348959,0 -8.023438,0 0,2.448568 0,4.897135 0,7.345703 -3.75651,4.350261 -7.513021,8.700521 -11.269531,13.050781 -2.160157,0 -4.320313,0 -6.480469,0 -3.733724,-4.349609 -7.467448,-8.699218 -11.201172,-13.048828 0,-2.449218 0,-4.898437 0,-7.347656 -2.6803384,0 -5.360677,0 -8.0410155,0 0,0.176432 0,0.352865 0,0.529297 z" />
    <path
       id="path558"
       style="fill:#ffffff;stroke:#ffffff;stroke-width:0.264583"
       d="m 71.242188,69.267578 c -6.202895,6.849818 -12.407634,13.697972 -18.609376,20.548828 0,2.582032 10e-7,5.164063 0,7.746094 2.68099,0 5.36198,0 8.042969,0 0,-2.216797 0,-4.433594 0,-6.650391 9.64974,0 19.299479,0 28.949219,0 0,2.216797 0,4.433594 0,6.650391 2.67513,0 5.35026,0 8.025391,0 0,-2.582682 0,-5.165365 0,-7.748047 C 91.378022,82.907764 85.106536,76.000272 78.833984,69.09375 c -2.477864,0 -4.955729,0 -7.433593,0 -0.05273,0.05794 -0.105469,0.115885 -0.158203,0.173828 z m 7.115234,7.896484 c 1.641927,1.902344 3.283854,3.804688 4.925781,5.707032 -5.434245,0 -10.868489,0 -16.302734,0 1.632161,-1.902344 3.264323,-3.804688 4.896484,-5.707032 2.160156,0 4.320313,10e-7 6.480469,0 z" />
  </g>
</svg>