<?xml version="1.0" encoding="UTF-8" standalone="no"?>
<svg
   height="24"
   width="24"
   version="1.1"
   id="svg3"
   sodipodi:docname="file-video.svg"
   inkscape:version="1.4.2 (ebf0e940d0, 2025-05-08)"
   xmlns:inkscape="http://www.inkscape.org/namespaces/inkscape"
   xmlns:sodipodi="http://sodipodi.sourceforge.net/DTD/sodipodi-0.dtd"
   xmlns="http://www.w3.org/2000/svg"
   xmlns:svg="http://www.w3.org/2000/svg">
  <sodipodi:namedview
     id="namedview3"
     pagecolor="#ffffff"
     bordercolor="#666666"
     borderopacity="1.0"
     inkscape:showpageshadow="2"
     inkscape:pageopacity="0.0"
     inkscape:pagecheckerboard="0"
     inkscape:deskcolor="#d1d1d1"
     inkscape:zoom="77.541667"
     inkscape:cx="11.993552"
     inkscape:cy="12"
     inkscape:window-width="3782"
     inkscape:window-height="2084"
     inkscape:window-x="0"
     inkscape:window-y="0"
     inkscape:window-maximized="1"
     inkscape:current-layer="svg3" />
  <defs
     id="defs3" />
  <g
     transform="translate(0 -1028.4)"
     id="g3">
    <path
       d="m4 1c-1.1046 0-2 0.8954-2 2v3 11 3 1c0 1.105 0.8954 2 2 2h2 12 2c1.105 0 2-0.895 2-2v-1-3-11-3c0-1.1046-0.895-2-2-2h-2-12-2zm-0.5 2h1c0.2761 0 0.5 0.2238 0.5 0.5v1c0 0.2762-0.2239 0.5-0.5 0.5h-1c-0.2761 0-0.5-0.2238-0.5-0.5v-1c0-0.2762 0.2239-0.5 0.5-0.5zm16 0h1c0.276 0 0.5 0.2238 0.5 0.5v1c0 0.2762-0.224 0.5-0.5 0.5h-1c-0.276 0-0.5-0.2238-0.5-0.5v-1c0-0.2762 0.224-0.5 0.5-0.5zm-16 3h1c0.2761 0 0.5 0.2238 0.5 0.5v1c0 0.2762-0.2239 0.5-0.5 0.5h-1c-0.2761 0-0.5-0.2238-0.5-0.5v-1c0-0.2762 0.2239-0.5 0.5-0.5zm16 0h1c0.276 0 0.5 0.2238 0.5 0.5v1c0 0.2762-0.224 0.5-0.5 0.5h-1c-0.276 0-0.5-0.2238-0.5-0.5v-1c0-0.2762 0.224-0.5 0.5-0.5zm-16 3h1c0.2761 0 0.5 0.2238 0.5 0.5v1c0 0.276-0.2239 0.5-0.5 0.5h-1c-0.2761 0-0.5-0.224-0.5-0.5v-1c0-0.2762 0.2239-0.5 0.5-0.5zm16 0h1c0.276 0 0.5 0.2238 0.5 0.5v1c0 0.276-0.224 0.5-0.5 0.5h-1c-0.276 0-0.5-0.224-0.5-0.5v-1c0-0.2762 0.224-0.5 0.5-0.5zm-16 3h1c0.2761 0 0.5 0.224 0.5 0.5v1c0 0.276-0.2239 0.5-0.5 0.5h-1c-0.2761 0-0.5-0.224-0.5-0.5v-1c0-0.276 0.2239-0.5 0.5-0.5zm16 0h1c0.276 0 0.5 0.224 0.5 0.5v1c0 0.276-0.224 0.5-0.5 0.5h-1c-0.276 0-0.5-0.224-0.5-0.5v-1c0-0.276 0.224-0.5 0.5-0.5zm-16 3h1c0.2761 0 0.5 0.224 0.5 0.5v1c0 0.276-0.2239 0.5-0.5 0.5h-1c-0.2761 0-0.5-0.224-0.5-0.5v-1c0-0.276 0.2239-0.5 0.5-0.5zm16 0h1c0.276 0 0.5 0.224 0.5 0.5v1c0 0.276-0.224 0.5-0.5 0.5h-1c-0.276 0-0.5-0.224-0.5-0.5v-1c0-0.276 0.224-0.5 0.5-0.5zm-16 3h1c0.2761 0 0.5 0.224 0.5 0.5v1c0 0.276-0.2239 0.5-0.5 0.5h-1c-0.2761 0-0.5-0.224-0.5-0.5v-1c0-0.276 0.2239-0.5 0.5-0.5zm16 0h1c0.276 0 0.5 0.224 0.5 0.5v1c0 0.276-0.224 0.5-0.5 0.5h-1c-0.276 0-0.5-0.224-0.5-0.5v-1c0-0.276 0.224-0.5 0.5-0.5z"
       transform="translate(0 1028.4)"
       fill="#e74c3c"
       id="path1"
       style="fill:#797979" />
    <path
       d="m2 1040.4v5 3 1c0 1.1 0.8954 2 2 2h2 12 2c1.105 0 2-0.9 2-2v-1-3-5h-1.5c0.276 0 0.5 0.2 0.5 0.5v1c0 0.2-0.224 0.5-0.5 0.5h-1c-0.276 0-0.5-0.3-0.5-0.5v-1c0-0.3 0.224-0.5 0.5-0.5h-15c0.2761 0 0.5 0.2 0.5 0.5v1c0 0.2-0.2239 0.5-0.5 0.5h-1c-0.2761 0-0.5-0.3-0.5-0.5v-1c0-0.3 0.2239-0.5 0.5-0.5h-1.5zm1.5 3h1c0.2761 0 0.5 0.2 0.5 0.5v1c0 0.2-0.2239 0.5-0.5 0.5h-1c-0.2761 0-0.5-0.3-0.5-0.5v-1c0-0.3 0.2239-0.5 0.5-0.5zm16 0h1c0.276 0 0.5 0.2 0.5 0.5v1c0 0.2-0.224 0.5-0.5 0.5h-1c-0.276 0-0.5-0.3-0.5-0.5v-1c0-0.3 0.224-0.5 0.5-0.5zm-16 3h1c0.2761 0 0.5 0.2 0.5 0.5v1c0 0.2-0.2239 0.5-0.5 0.5h-1c-0.2761 0-0.5-0.3-0.5-0.5v-1c0-0.3 0.2239-0.5 0.5-0.5zm16 0h1c0.276 0 0.5 0.2 0.5 0.5v1c0 0.2-0.224 0.5-0.5 0.5h-1c-0.276 0-0.5-0.3-0.5-0.5v-1c0-0.3 0.224-0.5 0.5-0.5z"
       fill="#c0392b"
       id="path2"
       style="fill:#606060" />
    <path
       d="m5 22v-20.196l17.66 10.098z"
       transform="matrix(.28312 0 0 .29709 8.5844 1036.8)"
       fill="#ecf0f1"
       id="path3"
       style="fill:#efefef" />
  </g>
</svg>
