<?xml version="1.0" encoding="UTF-8" standalone="no"?>
<svg
   height="24"
   width="24"
   version="1.1"
   id="svg4"
   sodipodi:docname="file-font.svg"
   inkscape:version="1.4.2 (ebf0e940d0, 2025-05-08)"
   xmlns:inkscape="http://www.inkscape.org/namespaces/inkscape"
   xmlns:sodipodi="http://sodipodi.sourceforge.net/DTD/sodipodi-0.dtd"
   xmlns="http://www.w3.org/2000/svg"
   xmlns:svg="http://www.w3.org/2000/svg">
  <sodipodi:namedview
     id="namedview4"
     pagecolor="#ffffff"
     bordercolor="#666666"
     borderopacity="1.0"
     inkscape:showpageshadow="2"
     inkscape:pageopacity="0.0"
     inkscape:pagecheckerboard="0"
     inkscape:deskcolor="#d1d1d1"
     inkscape:zoom="77.541667"
     inkscape:cx="11.993552"
     inkscape:cy="12"
     inkscape:window-width="3782"
     inkscape:window-height="2084"
     inkscape:window-x="0"
     inkscape:window-y="0"
     inkscape:window-maximized="1"
     inkscape:current-layer="svg4" />
  <defs
     id="defs4" />
  <g
     transform="translate(0 -1028.4)"
     id="g4">
    <path
       d="m5 1030.4c-1.1046 0-2 0.9-2 2v8 4 6c0 1.1 0.8954 2 2 2h14c1.105 0 2-0.9 2-2v-6-4-4l-6-6h-10z"
       fill="#95a5a6"
       id="path1"
       style="fill:#a0a0a0" />
    <path
       d="m5 1029.4c-1.1046 0-2 0.9-2 2v8 4 6c0 1.1 0.8954 2 2 2h14c1.105 0 2-0.9 2-2v-6-4-4l-6-6h-10z"
       fill="#bdc3c7"
       id="path2"
       style="fill:#c2c2c2" />
    <g
       transform="scale(.94973 1.0529)"
       id="g3">
      <path
         fill="#34495e"
         d="m14.479 990.91h-3.607l-0.721 0.89-0.8247 0.99c-0.1603 0.21-0.2777 0.4-0.3521 0.57-0.0573 0.14-0.0859 0.27-0.0859 0.4 0 0.14 0.0716 0.26 0.2147 0.38 0.1489 0.12 0.3922 0.19 0.73 0.2v0.37h-3.5154v-0.37c0.3092-0.05 0.7071-0.16 0.9475-0.32 0.3206-0.23 0.5572-0.5 1.1584-1.21l7.7775-10.45h0.646v9.93c-0.017 0.5 0.028 0.79 0.028 0.89 0 0.39 0.078 0.68 0.232 0.85 0.16 0.18 0.424 0.28 0.79 0.31l0.003 0.37h-5.265v-0.36c0.498-0.04 1.014-0.09 1.088-0.13 0.161-0.08 0.468-0.21 0.599-0.46 0.132-0.26 0.39-0.75 0.419-1.38v-1.47m0-0.95v-3.8l-3.159 3.8h3.159"
         id="path3"
         style="fill:#454545" />
    </g>
    <path
       d="m21 1035.4-6-6v4c0 1.1 0.895 2 2 2h4z"
       fill="#95a5a6"
       id="path4"
       style="fill:#a0a0a0" />
  </g>
</svg>
