<?xml version="1.0" encoding="UTF-8" standalone="no"?>
<svg
   height="24"
   width="24"
   version="1.1"
   id="svg4"
   sodipodi:docname="file-audio.svg"
   inkscape:version="1.4.2 (ebf0e940d0, 2025-05-08)"
   xmlns:inkscape="http://www.inkscape.org/namespaces/inkscape"
   xmlns:sodipodi="http://sodipodi.sourceforge.net/DTD/sodipodi-0.dtd"
   xmlns="http://www.w3.org/2000/svg"
   xmlns:svg="http://www.w3.org/2000/svg">
  <sodipodi:namedview
     id="namedview4"
     pagecolor="#ffffff"
     bordercolor="#666666"
     borderopacity="1.0"
     inkscape:showpageshadow="2"
     inkscape:pageopacity="0.0"
     inkscape:pagecheckerboard="0"
     inkscape:deskcolor="#d1d1d1"
     inkscape:zoom="77.541667"
     inkscape:cx="11.993552"
     inkscape:cy="12"
     inkscape:window-width="3782"
     inkscape:window-height="2084"
     inkscape:window-x="0"
     inkscape:window-y="0"
     inkscape:window-maximized="1"
     inkscape:current-layer="svg4" />
  <defs
     id="defs4" />
  <g
     transform="translate(0 -1028.4)"
     id="g4">
    <path
       d="m5 1030.4c-1.1046 0-2 0.9-2 2v8 4 6c0 1.1 0.8954 2 2 2h14c1.105 0 2-0.9 2-2v-6-4-4l-6-6h-10z"
       fill="#95a5a6"
       id="path1"
       style="fill:#a0a0a0" />
    <path
       d="m5 1029.4c-1.1046 0-2 0.9-2 2v8 4 6c0 1.1 0.8954 2 2 2h14c1.105 0 2-0.9 2-2v-6-4-4l-6-6h-10z"
       fill="#bdc3c7"
       id="path2"
       style="fill:#c2c2c2" />
    <g
       fill="#3498db"
       id="g3"
       style="fill:#828282">
      <path
         fill="#3498db"
         d="m16.996 1035.1v8.8c0 0.2-0.088 0.5-0.266 0.7-0.177 0.2-0.401 0.3-0.671 0.4-0.271 0.1-0.542 0.2-0.813 0.3-0.266 0-0.516 0.1-0.75 0.1s-0.487-0.1-0.758-0.1c-0.265-0.1-0.534-0.2-0.804-0.3-0.271-0.1-0.495-0.2-0.672-0.4s-0.266-0.5-0.266-0.7c0-0.3 0.089-0.5 0.266-0.7s0.401-0.4 0.672-0.5c0.27-0.1 0.539-0.2 0.804-0.3h0.758c0.547 0 1.047 0.1 1.5 0.3v-4.2l-5.9999 1.8v5.6c0 0.2-0.0886 0.5-0.2656 0.7-0.1771 0.2-0.4011 0.3-0.6719 0.4s-0.5417 0.2-0.8125 0.3c-0.2656 0-0.5156 0.1-0.75 0.1s-0.487-0.1-0.7578-0.1c-0.2656-0.1-0.5339-0.2-0.8047-0.3s-0.4948-0.2-0.6719-0.4-0.2656-0.5-0.2656-0.7c0-0.3 0.0885-0.5 0.2656-0.7s0.4011-0.4 0.6719-0.5 0.5391-0.2 0.8047-0.3h0.7578c0.5469 0 1.0469 0.1 1.5 0.3v-7.6c0-0.1 0.0495-0.3 0.1484-0.4 0.099-0.2 0.2266-0.3 0.3828-0.3l6.4997-2h0.219c0.208 0 0.385 0 0.531 0.2 0.146 0.1 0.219 0.3 0.219 0.5"
         id="path3"
         style="fill:#828282" />
    </g>
    <path
       d="m21 1035.4-6-6v4c0 1.1 0.895 2 2 2h4z"
       fill="#95a5a6"
       id="path4"
       style="fill:#a0a0a0" />
  </g>
</svg>
