<?xml version="1.0" encoding="UTF-8" standalone="no"?>
<svg
   height="24"
   width="24"
   version="1.1"
   id="svg3"
   sodipodi:docname="file-empty.svg"
   inkscape:version="1.4.2 (ebf0e940d0, 2025-05-08)"
   xmlns:inkscape="http://www.inkscape.org/namespaces/inkscape"
   xmlns:sodipodi="http://sodipodi.sourceforge.net/DTD/sodipodi-0.dtd"
   xmlns="http://www.w3.org/2000/svg"
   xmlns:svg="http://www.w3.org/2000/svg">
  <sodipodi:namedview
     id="namedview3"
     pagecolor="#ffffff"
     bordercolor="#666666"
     borderopacity="1.0"
     inkscape:showpageshadow="2"
     inkscape:pageopacity="0.0"
     inkscape:pagecheckerboard="0"
     inkscape:deskcolor="#d1d1d1"
     inkscape:zoom="77.541667"
     inkscape:cx="11.993552"
     inkscape:cy="12"
     inkscape:window-width="3782"
     inkscape:window-height="2084"
     inkscape:window-x="0"
     inkscape:window-y="0"
     inkscape:window-maximized="1"
     inkscape:current-layer="svg3" />
  <defs
     id="defs3" />
  <g
     transform="translate(0 -1028.4)"
     id="g3">
    <path
       d="m5 1030.4c-1.1046 0-2 0.9-2 2v8 4 6c0 1.1 0.8954 2 2 2h14c1.105 0 2-0.9 2-2v-6-4-4l-6-6h-10z"
       fill="#95a5a6"
       id="path1"
       style="fill:#a0a0a0" />
    <path
       d="m5 1029.4c-1.1046 0-2 0.9-2 2v8 4 6c0 1.1 0.8954 2 2 2h14c1.105 0 2-0.9 2-2v-6-4-4l-6-6h-10z"
       fill="#bdc3c7"
       id="path2"
       style="fill:#c2c2c2" />
    <path
       d="m21 1035.4-6-6v4c0 1.1 0.895 2 2 2h4z"
       fill="#95a5a6"
       id="path3"
       style="fill:#a0a0a0" />
  </g>
</svg>
