<?xml version="1.0" encoding="UTF-8" standalone="no"?>
<svg
   height="24"
   width="24"
   version="1.1"
   id="svg5"
   sodipodi:docname="file-picture.svg"
   inkscape:version="1.4.2 (ebf0e940d0, 2025-05-08)"
   xmlns:inkscape="http://www.inkscape.org/namespaces/inkscape"
   xmlns:sodipodi="http://sodipodi.sourceforge.net/DTD/sodipodi-0.dtd"
   xmlns="http://www.w3.org/2000/svg"
   xmlns:svg="http://www.w3.org/2000/svg">
  <sodipodi:namedview
     id="namedview5"
     pagecolor="#ffffff"
     bordercolor="#666666"
     borderopacity="1.0"
     inkscape:showpageshadow="2"
     inkscape:pageopacity="0.0"
     inkscape:pagecheckerboard="0"
     inkscape:deskcolor="#d1d1d1"
     inkscape:zoom="77.541667"
     inkscape:cx="11.993552"
     inkscape:cy="12"
     inkscape:window-width="3782"
     inkscape:window-height="2084"
     inkscape:window-x="0"
     inkscape:window-y="0"
     inkscape:window-maximized="1"
     inkscape:current-layer="svg5" />
  <defs
     id="defs5" />
  <g
     transform="translate(0 -1028.4)"
     id="g5">
    <path
       d="m23 1048.4c0 1.1-0.895 2-2 2h-8-4-6c-1.1046 0-2-0.9-2-2v-14c0-1.1 0.8954-2 2-2h6 4 4 4c1.105 0 2 0.9 2 2v4 10z"
       fill="#95a5a6"
       id="path1"
       style="fill:#a0a0a0" />
    <path
       d="m1 1047.4c0 1.1 0.8954 2 2 2h8 4 6c1.105 0 2-0.9 2-2v-14c0-1.1-0.895-2-2-2h-6-4-4-4c-1.1046 0-2 0.9-2 2v4 10z"
       fill="#bdc3c7"
       id="path2"
       style="fill:#c2c2c2" />
    <rect
       transform="translate(0 1028.4)"
       height="14"
       width="18"
       y="5"
       x="3"
       fill="#f39c12"
       id="rect2"
       style="fill:#a6a6a6" />
    <path
       d="m16.625 8.625-10.344 10.375h14.719v-6l-4.375-4.375z"
       transform="translate(0 1028.4)"
       fill="#e67e22"
       id="path3"
       style="fill:#939393" />
    <path
       d="m8 8a2 2 0 1 1 -4 0 2 2 0 1 1 4 0z"
       transform="matrix(1.75 0 0 1.75 -3 1024.4)"
       fill="#f1c40f"
       id="path4"
       style="fill:#bdbdbd" />
    <path
       d="m8.0938 11.094-5.0938 5.094v2.812h13l-7.9062-7.906z"
       transform="translate(0 1028.4)"
       fill="#d35400"
       id="path5"
       style="fill:#707070" />
  </g>
</svg>
