<?xml version="1.0" encoding="UTF-8" standalone="no"?>
<svg
   inkscape:version="1.4.2 (ebf0e940d0, 2025-05-08)"
   sodipodi:docname="folder-unfiled.svg"
   id="svg20"
   version="1.1"
   width="24"
   height="24"
   xmlns:inkscape="http://www.inkscape.org/namespaces/inkscape"
   xmlns:sodipodi="http://sodipodi.sourceforge.net/DTD/sodipodi-0.dtd"
   xmlns="http://www.w3.org/2000/svg"
   xmlns:svg="http://www.w3.org/2000/svg"
   xmlns:rdf="http://www.w3.org/1999/02/22-rdf-syntax-ns#"
   xmlns:cc="http://creativecommons.org/ns#"
   xmlns:dc="http://purl.org/dc/elements/1.1/">
  <sodipodi:namedview
     inkscape:current-layer="svg20"
     inkscape:window-maximized="1"
     inkscape:window-y="0"
     inkscape:window-x="0"
     inkscape:cy="10.58926"
     inkscape:cx="8.9869377"
     inkscape:zoom="28.708333"
     showgrid="false"
     id="namedview22"
     inkscape:window-height="2123"
     inkscape:window-width="3840"
     inkscape:pageshadow="2"
     inkscape:pageopacity="0"
     guidetolerance="10"
     gridtolerance="10"
     objecttolerance="10"
     borderopacity="1"
     inkscape:document-rotation="0"
     bordercolor="#666666"
     pagecolor="#ffffff"
     inkscape:showpageshadow="2"
     inkscape:pagecheckerboard="0"
     inkscape:deskcolor="#d1d1d1" />
  <metadata
     id="metadata26">
    <rdf:RDF>
      <cc:Work
         rdf:about="">
        <dc:format>image/svg+xml</dc:format>
        <dc:type
           rdf:resource="http://purl.org/dc/dcmitype/StillImage" />
      </cc:Work>
    </rdf:RDF>
  </metadata>
  <defs
     id="defs24" />
  <g
     id="g1439">
    <path
       inkscape:connector-curvature="0"
       id="path10"
       fill="#2980b9"
       d="M 2,5 C 0.8954,5 0,5.9 0,7 v 14 c 0,1.1 0.89543,2 2,2 h 20 c 1.105,0 2,-0.9 2,-2 V 7 C 24,5.9 23.105,5 22,5 Z"
       style="fill:#a0a0a0;fill-opacity:1" />
    <path
       inkscape:connector-curvature="0"
       id="path12"
       fill="#2980b9"
       d="M 3,1 C 1.8954,1 1,1.9 1,3 v 14 c 0,1.1 0.8954,2 2,2 h 11 5 2 c 1.105,0 2,-0.9 2,-2 V 8 5 C 23,3.9 22.105,3 21,3 H 19 14 13 L 10,1 Z"
       style="fill:#a0a0a0;fill-opacity:1" />
    <path
       inkscape:connector-curvature="0"
       id="path14"
       fill="#bdc3c7"
       d="M 23,14 V 6 C 23,4.9 22.105,4 21,4 H 10 5 3 C 1.8954,4 1,4.9 1,6 v 8 z"
       style="fill:#ffffff;fill-opacity:1" />
    <path
       inkscape:connector-curvature="0"
       id="path16"
       fill="#3498db"
       d="M 2,5 C 0.8954,5 0,5.9 0,7 v 6 1 6 c 0,1.1 0.89543,2 2,2 h 20 c 1.105,0 2,-0.9 2,-2 V 14 13 7 C 24,5.9 23.105,5 22,5 Z"
       style="fill:#c2c2c2;fill-opacity:1" />
  </g>
</svg>
