<?xml version="1.0" encoding="UTF-8" standalone="no"?>
<svg
   height="24"
   width="24"
   version="1.1"
   id="svg5"
   sodipodi:docname="folder-root.svg"
   inkscape:version="1.4.2 (ebf0e940d0, 2025-05-08)"
   xmlns:inkscape="http://www.inkscape.org/namespaces/inkscape"
   xmlns:sodipodi="http://sodipodi.sourceforge.net/DTD/sodipodi-0.dtd"
   xmlns="http://www.w3.org/2000/svg"
   xmlns:svg="http://www.w3.org/2000/svg">
  <sodipodi:namedview
     id="namedview5"
     pagecolor="#ffffff"
     bordercolor="#666666"
     borderopacity="1.0"
     inkscape:showpageshadow="2"
     inkscape:pageopacity="0.0"
     inkscape:pagecheckerboard="0"
     inkscape:deskcolor="#d1d1d1"
     inkscape:zoom="77.541667"
     inkscape:cx="11.993552"
     inkscape:cy="12"
     inkscape:window-width="3782"
     inkscape:window-height="2084"
     inkscape:window-x="0"
     inkscape:window-y="0"
     inkscape:window-maximized="1"
     inkscape:current-layer="svg5" />
  <defs
     id="defs5" />
  <g
     transform="translate(0 -1028.4)"
     id="g4">
    <path
       d="m2 1033.4c-1.1046 0-2 0.9-2 2v14c0 1.1 0.89543 2 2 2h20c1.105 0 2-0.9 2-2v-14c0-1.1-0.895-2-2-2h-20z"
       fill="#2980b9"
       id="path1"
       style="fill:#6c6c6c" />
    <path
       d="m3 1029.4c-1.1046 0-2 0.9-2 2v14c0 1.1 0.8954 2 2 2h11 5 2c1.105 0 2-0.9 2-2v-9-3c0-1.1-0.895-2-2-2h-2-5-1l-3-2h-7z"
       fill="#2980b9"
       id="path2"
       style="fill:#6c6c6c" />
    <path
       d="m23 1042.4v-8c0-1.1-0.895-2-2-2h-11-5-2c-1.1046 0-2 0.9-2 2v8h22z"
       fill="#bdc3c7"
       id="path3"
       style="fill:#c2c2c2" />
    <path
       d="m2 1033.4c-1.1046 0-2 0.9-2 2v6 1 6c0 1.1 0.89543 2 2 2h20c1.105 0 2-0.9 2-2v-6-1-6c0-1.1-0.895-2-2-2h-20z"
       fill="#3498db"
       id="path4"
       style="fill:#828282" />
  </g>
  <path
     d="m12 8.3438l-6.5312 5.6562 0.9374 1 0.5938-0.531v4.531h4v-3h2v3h4v-4.531l0.594 0.531 0.937-1-1.531-1.312v-3.688h-2v1.938l-3-2.5942z"
     fill="#2980b9"
     id="path5"
     style="fill:#6c6c6c" />
</svg>
